<?xml version="1.0" standalone="no"?>
<!DOCTYPE svg PUBLIC "-//W3C//DTD SVG 20010904//EN"
 "http://www.w3.org/TR/2001/REC-SVG-20010904/DTD/svg10.dtd">
<svg version="1.0" xmlns="http://www.w3.org/2000/svg"
 width="500.000000pt" height="400.000000pt" viewBox="0 0 500.000000 400.000000"
 preserveAspectRatio="xMidYMid meet">

<g transform="translate(0.000000,400.000000) scale(0.100000,-0.100000)"
fill="#000000" stroke="none">
<path d="M2163 3773 c-41 -62 -10 -365 43 -424 21 -24 62 -25 80 -1 14 18 18
60 8 86 -12 30 -24 16 -24 -28 0 -45 -19 -66 -38 -43 -16 19 -40 87 -51 145
-12 58 -13 192 -2 231 9 34 29 37 42 7 14 -30 29 -34 29 -8 0 27 -29 62 -50
62 -11 0 -28 -12 -37 -27z"/>
<path d="M2367 3783 c-29 -33 -40 -108 -34 -231 3 -64 11 -134 18 -156 25 -75
86 -68 109 13 13 47 13 233 0 301 -15 82 -56 113 -93 73z m65 -66 c17 -62 16
-275 -2 -311 -24 -47 -38 -43 -55 19 -29 98 -22 297 11 330 21 21 31 12 46
-38z"/>
<path d="M2557 3793 c-3 -5 -10 -66 -16 -138 -7 -71 -19 -172 -27 -223 -9 -52
-13 -96 -10 -100 16 -15 26 25 46 173 11 88 22 165 24 170 1 6 13 -57 25 -140
12 -82 24 -165 27 -182 6 -38 19 -43 28 -10 12 44 49 437 42 444 -15 15 -23
-23 -36 -163 -7 -80 -15 -143 -17 -140 -4 4 -63 298 -63 314 0 5 -19 1 -23 -5z"/>
<path d="M2786 3741 c-3 -5 -13 -40 -21 -77 -9 -38 -32 -126 -51 -195 -18 -69
-34 -133 -34 -141 0 -16 33 -32 88 -43 50 -10 39 13 -13 26 -55 14 -55 18 -17
149 27 94 27 95 62 101 l35 5 -27 14 c-32 15 -32 15 -17 78 14 57 26 74 48 68
49 -15 71 -17 71 -8 0 22 -112 43 -124 23z"/>
<path d="M1868 3723 c-25 -6 -41 -56 -33 -105 6 -37 19 -54 96 -129 79 -76 89
-90 89 -122 0 -67 -21 -88 -42 -42 -12 27 -38 34 -38 11 0 -20 39 -66 56 -66
25 0 54 39 54 72 0 53 -38 116 -100 166 -69 56 -93 94 -88 142 4 44 30 51 47
14 9 -20 15 -24 23 -16 9 9 8 18 -2 38 -16 29 -38 42 -62 37z"/>
<path d="M2994 3653 c-41 -44 -113 -202 -131 -285 -15 -71 -15 -78 1 -102 30
-46 80 -29 105 36 16 42 -6 45 -26 4 -19 -41 -37 -51 -54 -30 -30 36 50 267
121 347 36 41 50 40 50 -4 0 -20 4 -29 13 -27 15 6 21 32 13 64 -9 35 -59 33
-92 -3z"/>
<path d="M1664 3623 c63 -223 132 -433 140 -429 14 5 14 3 -19 114 -24 79 -26
95 -14 103 8 5 17 9 21 9 4 0 30 -38 58 -85 53 -87 65 -101 74 -87 5 9 -126
229 -200 336 -38 54 -71 75 -60 39z m80 -117 c29 -50 32 -66 13 -66 -8 0 -20
23 -29 55 -8 30 -14 55 -13 55 2 0 15 -20 29 -44z"/>
<path d="M3170 3611 c0 -5 9 -15 20 -22 19 -14 17 -18 -48 -139 -134 -247
-141 -260 -131 -266 13 -7 9 -12 51 66 167 309 169 312 195 305 37 -9 24 15
-23 42 -41 23 -64 29 -64 14z"/>
<path d="M1450 3519 c0 -7 42 -81 94 -163 52 -83 101 -166 110 -184 23 -44 38
-48 86 -21 61 35 53 54 -10 23 -27 -14 -34 -15 -41 -3 -5 8 -56 90 -113 184
-97 158 -126 195 -126 164z"/>
<path d="M3304 3377 c-162 -168 -214 -225 -214 -236 0 -23 21 -8 89 65 56 60
75 74 91 69 11 -3 20 -9 20 -13 0 -4 -23 -47 -50 -96 -29 -51 -47 -93 -42 -98
13 -13 20 -1 126 203 130 252 129 260 -20 106z m29 -36 c-22 -38 -32 -48 -41
-39 -9 9 -2 22 26 53 20 23 38 40 40 39 2 -1 -10 -25 -25 -53z"/>
<path d="M1305 3420 c-3 -6 26 -52 66 -103 39 -50 101 -131 136 -179 36 -49
70 -88 77 -88 17 0 94 69 78 70 -8 0 -27 -10 -44 -21 -16 -12 -33 -18 -38 -13
-4 5 -65 84 -134 177 -70 92 -129 167 -131 167 -2 0 -7 -5 -10 -10z"/>
<path d="M3523 3373 c-7 -19 -196 -234 -257 -292 -44 -43 -45 -55 -5 -71 27
-12 36 -11 72 7 86 42 202 171 244 270 17 42 8 75 -27 93 -17 9 -21 8 -27 -7z
m37 -48 c0 -69 -205 -295 -267 -295 -13 0 -23 3 -23 6 0 9 273 304 282 304 4
0 8 -7 8 -15z"/>
<path d="M1196 3320 c-20 -22 -36 -43 -36 -46 0 -11 305 -324 315 -324 16 0
90 79 82 87 -4 3 -23 -9 -43 -28 l-35 -34 -86 87 -85 88 17 26 c21 32 12 43
-15 19 -20 -18 -21 -18 -65 25 -25 24 -45 48 -45 53 0 5 11 22 25 39 50 59 24
66 -29 8z"/>
<path d="M1095 3201 c-3 -6 29 -38 71 -73 171 -141 229 -191 237 -205 8 -14
-7 -43 -23 -43 -12 0 -114 79 -225 174 -100 85 -119 98 -113 73 3 -13 140
-133 256 -225 76 -59 132 -55 132 9 0 29 -34 62 -231 227 -91 76 -94 78 -104
63z"/>
<path d="M3630 3134 c-47 -30 -131 -84 -187 -120 -93 -59 -120 -84 -93 -84 5
0 47 24 92 54 45 29 88 52 95 49 26 -10 12 -39 -52 -108 -67 -72 -75 -85 -52
-85 18 0 307 323 307 344 0 15 -30 1 -110 -50z m-7 -56 c-30 -30 -46 -39 -53
-32 -8 8 3 20 37 42 26 18 50 32 53 32 3 0 -14 -19 -37 -42z"/>
<path d="M2657 3085 c-58 -20 -83 -41 -126 -104 -60 -88 -84 -154 -85 -236 -1
-84 27 -151 80 -191 68 -52 227 -74 296 -40 28 13 44 32 64 73 26 51 27 59 21
156 -14 213 -66 312 -185 346 -18 6 -42 4 -65 -4z m93 -37 c83 -42 118 -128
126 -308 6 -134 -6 -173 -66 -202 -71 -36 -222 -12 -281 44 -85 81 -78 229 17
374 39 58 57 76 99 98 40 21 53 20 105 -6z"/>
<path d="M2042 3073 c-49 -24 -100 -90 -120 -153 -13 -41 -17 -91 -17 -192 0
-123 2 -139 21 -165 49 -65 116 -80 242 -53 76 16 116 41 157 99 28 40 30 49
30 129 0 80 -3 93 -37 162 -80 163 -175 223 -276 173z m117 -17 c67 -35 147
-159 171 -267 27 -122 -29 -219 -146 -252 -129 -36 -213 -15 -247 62 -17 39
-19 59 -14 151 9 170 48 258 129 299 51 25 69 26 107 7z"/>
<path d="M970 3056 c0 -7 27 -31 60 -52 l60 -38 -19 -29 c-10 -16 -20 -30 -23
-30 -3 -1 -31 15 -63 36 -37 24 -62 34 -68 28 -6 -6 62 -56 182 -135 106 -69
194 -126 197 -126 2 0 4 6 4 13 0 7 -49 46 -110 86 -60 40 -110 78 -110 84 0
7 8 22 18 35 l17 22 112 -75 c110 -74 133 -85 133 -65 0 8 -373 260 -386 260
-2 0 -4 -6 -4 -14z"/>
<path d="M3755 3024 c-44 -22 -50 -30 -95 -122 -48 -99 -80 -132 -126 -132
-37 0 -45 18 -19 40 19 15 19 30 2 30 -20 0 -47 -33 -47 -56 0 -28 19 -44 55
-44 58 0 124 60 155 140 20 52 57 108 79 120 29 15 81 13 81 -4 0 -7 -7 -19
-15 -26 -16 -13 -20 -40 -7 -40 16 0 52 46 52 66 0 44 -57 58 -115 28z"/>
<path d="M1552 2643 c-103 -36 -142 -122 -142 -309 0 -123 13 -158 72 -194 40
-24 124 -26 213 -5 70 17 99 37 140 94 27 39 30 50 30 124 0 70 -4 90 -28 135
-54 104 -139 173 -209 171 -18 0 -52 -7 -76 -16z m175 -51 c58 -46 104 -129
110 -200 8 -85 -3 -127 -44 -173 -65 -72 -234 -102 -306 -54 -47 31 -60 76
-54 194 8 181 46 244 162 270 43 10 89 -2 132 -37z"/>
<path d="M3102 2639 c-78 -39 -155 -154 -168 -250 -9 -68 18 -151 65 -198 29
-29 53 -42 104 -54 142 -36 225 -17 271 63 40 68 22 294 -29 371 -48 73 -167
107 -243 68z m124 -14 c98 -29 135 -96 142 -260 7 -177 -23 -220 -153 -220
-163 1 -255 78 -255 213 0 82 26 140 95 209 34 33 72 63 86 66 13 2 27 5 30 6
3 0 28 -6 55 -14z"/>
<path d="M2221 2264 c-128 -34 -246 -127 -317 -247 -51 -87 -119 -250 -151
-364 -36 -129 -39 -292 -6 -363 26 -58 59 -93 114 -121 63 -33 227 -32 314 1
60 23 160 84 184 114 12 14 16 13 45 -9 76 -58 233 -105 349 -105 134 0 230
65 263 177 54 186 -54 485 -258 710 -68 74 -169 163 -187 163 -23 0 -9 -18 48
-62 139 -108 283 -316 348 -503 34 -94 42 -242 19 -312 -19 -56 -64 -105 -118
-127 -84 -35 -289 -9 -399 50 -74 41 -76 46 -40 102 83 129 80 237 -8 263 -56
17 -108 4 -149 -37 -32 -32 -34 -38 -30 -82 6 -58 28 -107 74 -160 l34 -40
-37 -32 c-21 -17 -72 -48 -113 -68 -68 -33 -84 -37 -175 -40 -94 -3 -103 -2
-155 25 -82 42 -113 97 -118 213 -7 153 34 314 133 518 44 88 69 126 119 177
77 78 179 131 285 148 39 6 71 14 71 19 0 13 -79 8 -139 -8z m226 -680 c30
-41 2 -154 -57 -224 l-20 -25 -34 38 c-45 50 -66 96 -66 142 0 72 32 97 114
91 33 -2 54 -9 63 -22z"/>
</g>
</svg>
